<svg width="1314" height="1087" xmlns="http://www.w3.org/2000/svg" xmlns:xlink="http://www.w3.org/1999/xlink" xml:space="preserve" overflow="hidden"><defs><clipPath id="clip0"><rect x="3608" y="75" width="1314" height="1087"/></clipPath></defs><g clip-path="url(#clip0)" transform="translate(-3608 -75)"><g><path d="M3807.5 867.5 4840.5 867.5M3807.5 784.526 4840.5 784.526M3807.5 702.523 4840.5 702.523M3807.5 620.521 4840.5 620.521M3807.5 537.518 4840.5 537.518M3807.5 455.515 4840.5 455.515M3807.5 372.512 4840.5 372.512M3807.5 290.51 4840.5 290.51M3807.5 207.507 4840.5 207.507M3807.5 125.5 4840.5 125.5" stroke="#000000" stroke-width="1.14583" stroke-linejoin="round" stroke-miterlimit="10" fill="none"/></g><g><path d="M3807.5 125.5 3807.5 867.5M3955.63 125.5 3955.63 867.5M4102.63 125.5 4102.63 867.5M4250.64 125.5 4250.64 867.5M4397.64 125.5 4397.64 867.5M4545.65 125.5 4545.65 867.5M4693.65 125.5 4693.65 867.5M4840.5 125.5 4840.5 867.5" stroke="#000000" stroke-width="1.14583" stroke-linejoin="round" stroke-miterlimit="10" fill="none"/></g><g><rect x="3807.5" y="125.5" width="1033" height="742" stroke="#000000" stroke-width="6.875" stroke-linejoin="round" stroke-miterlimit="10" fill="none"/></g><g><path d="M3926.5 207.5 3989.63 455.515 4029.63 537.518 4085.63 620.521 4131.64 661.522 4204.64 702.523 4303.64 743.525 4511.65 784.526 4636.65 801.526 4705.5 809.5" stroke="#000000" stroke-width="6.875" stroke-linecap="round" stroke-linejoin="round" stroke-miterlimit="10" stroke-dasharray="20.625 27.5" fill="none"/></g><g><path d="M3926.5 207.5 3989.63 455.515 4029.63 540.518 4085.63 616.52 4131.64 658.522 4204.64 704.523 4303.64 743.525 4511.65 787.526 4636.65 801.526 4705.5 808.5" stroke="#000000" stroke-width="6.875" stroke-linecap="round" stroke-linejoin="round" stroke-miterlimit="10" stroke-dasharray="0 13.75" fill="none"/></g><g><text font-family="Times New Roman,Times New Roman_MSFontService,sans-serif" font-weight="400" font-size="41" transform="matrix(1 0 0 1 3752.03 880)">0</text></g><g><text font-family="Times New Roman,Times New Roman_MSFontService,sans-serif" font-weight="400" font-size="41" transform="matrix(1 0 0 1 3731.41 798)">10</text></g><g><text font-family="Times New Roman,Times New Roman_MSFontService,sans-serif" font-weight="400" font-size="41" transform="matrix(1 0 0 1 3731.41 716)">20</text></g><g><text font-family="Times New Roman,Times New Roman_MSFontService,sans-serif" font-weight="400" font-size="41" transform="matrix(1 0 0 1 3731.41 633)">30</text></g><g><text font-family="Times New Roman,Times New Roman_MSFontService,sans-serif" font-weight="400" font-size="41" transform="matrix(1 0 0 1 3731.41 551)">40</text></g><g><text font-family="Times New Roman,Times New Roman_MSFontService,sans-serif" font-weight="400" font-size="41" transform="matrix(1 0 0 1 3731.41 468)">50</text></g><g><text font-family="Times New Roman,Times New Roman_MSFontService,sans-serif" font-weight="400" font-size="41" transform="matrix(1 0 0 1 3731.41 386)">60</text></g><g><text font-family="Times New Roman,Times New Roman_MSFontService,sans-serif" font-weight="400" font-size="41" transform="matrix(1 0 0 1 3731.41 303)">70</text></g><g><text font-family="Times New Roman,Times New Roman_MSFontService,sans-serif" font-weight="400" font-size="41" transform="matrix(1 0 0 1 3731.41 221)">80</text></g><g><text font-family="Times New Roman,Times New Roman_MSFontService,sans-serif" font-weight="400" font-size="41" transform="matrix(1 0 0 1 3731.41 138)">90</text></g><g><text font-family="Times New Roman,Times New Roman_MSFontService,sans-serif" font-weight="400" font-size="41" transform="matrix(1 0 0 1 3797.43 929)">0</text></g><g><text font-family="Times New Roman,Times New Roman_MSFontService,sans-serif" font-weight="400" font-size="41" transform="matrix(1 0 0 1 3924.39 929)">100</text></g><g><text font-family="Times New Roman,Times New Roman_MSFontService,sans-serif" font-weight="400" font-size="41" transform="matrix(1 0 0 1 4071.97 929)">200</text></g><g><text font-family="Times New Roman,Times New Roman_MSFontService,sans-serif" font-weight="400" font-size="41" transform="matrix(1 0 0 1 4219.55 929)">300</text></g><g><text font-family="Times New Roman,Times New Roman_MSFontService,sans-serif" font-weight="400" font-size="41" transform="matrix(1 0 0 1 4367.13 929)">400</text></g><g><text font-family="Times New Roman,Times New Roman_MSFontService,sans-serif" font-weight="400" font-size="41" transform="matrix(1 0 0 1 4514.71 929)">500</text></g><g><text font-family="Times New Roman,Times New Roman_MSFontService,sans-serif" font-weight="400" font-size="41" transform="matrix(1 0 0 1 4662.29 929)">600</text></g><g><text font-family="Times New Roman,Times New Roman_MSFontService,sans-serif" font-weight="400" font-size="41" transform="matrix(1 0 0 1 4809.86 929)">700</text></g><g><text font-family="Times New Roman,Times New Roman_MSFontService,sans-serif" font-weight="400" font-size="46" transform="matrix(6.12323e-17 -1 1 6.12323e-17 3707.94 823)">Distance to reflective object L (cm)</text></g><g><text font-family="Times New Roman,Times New Roman_MSFontService,sans-serif" font-weight="400" font-size="46" transform="matrix(1 0 0 1 3964.07 994)">Microcontroller Measurement (integer)</text></g><g><path d="M3785.5 1097.5 3900.5 1097.5" stroke="#000000" stroke-width="6.875" stroke-linecap="round" stroke-linejoin="round" stroke-miterlimit="10" stroke-dasharray="20.625 27.5" fill="none" fill-rule="evenodd"/></g><g><text font-family="Times New Roman,Times New Roman_MSFontService,sans-serif" font-weight="400" font-size="41" transform="matrix(1 0 0 1 3913.69 1111)">Distance L (cm)</text></g><g><path d="M4259.5 1097.5 4375.5 1097.5" stroke="#000000" stroke-width="6.875" stroke-linecap="round" stroke-linejoin="round" stroke-miterlimit="10" stroke-dasharray="0 13.75" fill="none" fill-rule="evenodd"/></g><g><text font-family="Times New Roman,Times New Roman_MSFontService,sans-serif" font-weight="400" font-size="41" transform="matrix(1 0 0 1 4388.22 1111)">Estimated Distance L*</text></g></g></svg>